<svg width="1048" height="1048" viewBox="0 0 1048 1048" fill="none" xmlns="http://www.w3.org/2000/svg">
<rect width="1048" height="1048" fill="#272727"/>
<path d="M268 257.5C228.787 257.5 197 289.45 197 328.5V825.5C197 864.55 228.787 896.5 268 896.5H481H552H765C804.228 896.5 836 864.55 836 825.5V328.5C836 289.45 804.228 257.5 765 257.5H552H481H268Z" fill="#BDC3C7"/>
<path d="M268 222C228.787 222 197 253.787 197 293V790C197 829.228 228.787 861 268 861H481H552H765C804.228 861 836 829.228 836 790V293C836 253.787 804.228 222 765 222H552H481H268Z" fill="#ECF0F1"/>
<path d="M268 222C228.787 222 197 253.787 197 293V399.5V435H836V399.5V293C836 253.787 804.228 222 765 222H552H481H268Z" fill="#B95D29"/>
<path d="M356.75 310.75C356.75 317.743 355.373 324.667 352.697 331.128C350.021 337.588 346.098 343.459 341.153 348.403C336.209 353.348 330.338 357.27 323.878 359.947C317.417 362.623 310.493 364 303.5 364C296.507 364 289.583 362.623 283.122 359.947C276.662 357.27 270.791 353.348 265.847 348.403C260.902 343.459 256.979 337.588 254.303 331.128C251.627 324.667 250.25 317.743 250.25 310.75C250.25 303.757 251.627 296.833 254.303 290.372C256.979 283.912 260.902 278.041 265.847 273.097C270.791 268.152 276.662 264.229 283.122 261.553C289.583 258.877 296.507 257.5 303.5 257.5C310.493 257.5 317.417 258.877 323.878 261.553C330.338 264.229 336.209 268.152 341.153 273.097C346.098 278.041 350.021 283.912 352.697 290.372C355.373 296.833 356.75 303.757 356.75 310.75V310.75Z" fill="#A04A19"/>
<path d="M782.75 310.75C782.75 317.743 781.373 324.667 778.697 331.128C776.021 337.588 772.098 343.459 767.153 348.403C762.209 353.348 756.338 357.27 749.878 359.947C743.417 362.623 736.493 364 729.5 364C722.507 364 715.583 362.623 709.122 359.947C702.662 357.27 696.791 353.348 691.847 348.403C686.902 343.459 682.979 337.588 680.303 331.128C677.627 324.667 676.25 317.743 676.25 310.75C676.25 303.757 677.627 296.833 680.303 290.372C682.979 283.912 686.902 278.041 691.847 273.097C696.791 268.152 702.662 264.229 709.122 261.553C715.583 258.877 722.507 257.5 729.5 257.5C736.493 257.5 743.417 258.877 749.878 261.553C756.338 264.229 762.209 268.152 767.153 273.097C772.098 278.041 776.021 283.912 778.697 290.372C781.373 296.833 782.75 303.757 782.75 310.75V310.75Z" fill="#A04A19"/>
<path d="M268 506V577H339V506H268ZM374.5 506V577H445.5V506H374.5ZM481 506V577H552V506H481ZM587.5 506V577H658.5V506H587.5ZM694 506V577H765V506H694Z" fill="#BDC3C7"/>
<path d="M268 612.5V683.5H339V612.5H268ZM374.5 612.5V683.5H445.5V612.5H374.5ZM481 612.5V683.5H552V612.5H481ZM587.5 612.5V683.5H658.5V612.5H587.5ZM694 612.5V683.5H765V612.5H694Z" fill="#BDC3C7"/>
<path d="M268 719V790H339V719H268ZM374.5 719V790H445.5V719H374.5ZM481 719V790H552V719H481ZM587.5 719V790H658.5V719H587.5ZM694 719V790H765V719H694Z" fill="#BDC3C7"/>
<path d="M303.5 151C283.893 151 268 166.893 268 186.5V293C268 312.607 283.893 328.5 303.5 328.5C323.107 328.5 339 312.607 339 293V186.5C339 166.893 323.107 151 303.5 151ZM729.5 151C709.904 151 694 166.893 694 186.5V293C694 312.607 709.904 328.5 729.5 328.5C749.096 328.5 765 312.607 765 293V186.5C765 166.893 749.096 151 729.5 151Z" fill="#95A5A6"/>
<path d="M303.5 151C283.893 151 268 165.2 268 186.5V257.5H339V186.5C339 165.2 323.107 151 303.5 151ZM729.5 151C709.904 151 694 165.2 694 186.5V257.5H765V186.5C765 165.2 749.096 151 729.5 151Z" fill="#BDC3C7"/>
<path d="M742.712 465.832C738.691 457.192 730.026 451.666 720.497 451.666H585.462L675.834 309.653C680.632 302.109 680.943 292.549 676.64 284.711C672.338 276.872 664.106 272 655.165 272H524.498H508.165C499.422 272 491.341 276.658 486.963 284.224L307.297 594.556C302.908 602.136 302.902 611.481 307.274 619.069C311.649 626.657 319.741 631.332 328.499 631.332H476.088L435.527 780.052C432.501 791.146 437.6 802.853 447.784 808.196C451.391 810.087 455.291 811 459.154 811C466.199 811 473.123 807.962 477.904 802.28L524.498 746.952L739.238 491.948C745.377 484.658 746.732 474.47 742.712 465.832Z" fill="#F2D23D"/>
<path d="M447.784 808.196C451.391 810.087 455.291 811 459.154 811C466.199 811 473.123 807.962 477.904 802.28L524.498 746.952V272H508.165C499.423 272 491.341 276.658 486.963 284.224L307.297 594.556C302.908 602.136 302.902 611.481 307.274 619.069C311.649 626.657 319.741 631.332 328.499 631.332H476.088L435.527 780.052C432.503 791.146 437.6 802.853 447.784 808.196Z" fill="#EEBF00"/>
</svg>
